<?xml version="1.0" standalone="no"?>
<!DOCTYPE svg PUBLIC "-//W3C//DTD SVG 20010904//EN"
 "http://www.w3.org/TR/2001/REC-SVG-20010904/DTD/svg10.dtd">
<svg version="1.0" xmlns="http://www.w3.org/2000/svg"
 width="360.000000pt" height="360.000000pt" viewBox="0 0 360.000000 360.000000"
 preserveAspectRatio="xMidYMid meet">
<metadata>
Created by potrace 1.14, written by Peter Selinger 2001-2017
</metadata>
<g transform="translate(0.000000,360.000000) scale(0.100000,-0.100000)"
fill="#000000" stroke="none">
<path d="M1640 2734 c-14 -3 -63 -15 -110 -26 -388 -96 -704 -417 -794 -806
-14 -63 -8 -119 16 -150 8 -9 6 -18 -7 -32 -30 -33 2 -69 34 -37 9 9 73 11
269 9 141 -2 269 -1 285 3 20 5 27 13 27 31 l0 24 -255 0 c-167 0 -263 4 -279
11 -58 27 -57 109 3 265 122 315 380 545 716 636 126 34 355 35 508 2 24 -6
27 -3 27 19 0 22 -6 27 -47 37 -49 12 -348 22 -393 14z"/>
<path d="M2207 2653 c-21 -20 -2 -41 63 -73 52 -25 73 -31 81 -23 20 20 2 41
-64 72 -71 34 -71 34 -80 24z"/>
<path d="M1972 2537 c-26 -27 -28 -52 -6 -61 19 -7 66 41 62 63 -5 25 -32 24
-56 -2z"/>
<path d="M1576 2519 c-14 -16 -23 -36 -20 -44 9 -22 41 -18 58 7 37 53 3 86
-38 37z"/>
<path d="M2440 2493 c0 -9 28 -41 62 -72 34 -31 88 -89 120 -130 96 -120 197
-350 200 -454 1 -22 -8 -38 -31 -59 l-31 -28 -573 2 -572 3 570 2 c359 2 573
7 579 13 7 7 -85 10 -269 10 -400 0 -1442 33 -1569 50 -43 5 -80 17 -97 29
-35 26 -39 26 -39 -1 1 -93 16 -98 320 -98 251 0 251 0 260 -22 5 -13 9 -19 9
-14 1 5 10 1 22 -10 15 -13 35 -19 66 -18 49 1 69 14 59 39 -5 14 -17 17 -70
13 -36 -2 -62 0 -60 4 3 4 32 8 65 8 47 0 63 -4 76 -20 22 -25 60 -26 66 -2 4
13 5 12 6 -5 0 -12 10 -27 20 -33 13 -6 221 -10 601 -9 366 1 586 -3 592 -9 5
-5 8 -20 6 -33 l-3 -24 -1021 -3 c-899 -2 -1023 0 -1034 13 -17 20 -36 19 -45
-2 -11 -30 38 -63 93 -63 l47 0 -1 -47 -1 -48 -40 -5 c-79 -11 -113 -60 -113
-160 0 -33 4 -43 20 -47 14 -4 20 -14 20 -34 0 -37 15 -74 40 -99 l20 -20 -39
-36 c-91 -82 -78 -223 27 -295 l36 -24 752 -3 c683 -2 752 -1 758 14 3 9 4 20
0 25 -3 5 -307 9 -735 9 -802 0 -775 -2 -820 61 -34 48 -33 128 2 165 43 46
70 54 184 54 85 0 107 3 111 15 4 8 14 15 24 15 10 0 20 -7 24 -15 4 -12 25
-15 101 -15 76 0 97 3 101 15 9 21 109 21 118 0 5 -13 85 -15 641 -15 527 0
641 -2 663 -14 98 -51 107 -174 18 -241 -24 -18 -47 -21 -204 -25 -169 -5
-177 -6 -177 -25 0 -19 7 -20 186 -20 180 0 187 1 221 24 50 35 80 84 86 140
6 66 -12 113 -59 156 l-39 35 25 28 c25 27 34 72 15 72 -5 0 -10 14 -10 30 0
28 2 30 33 28 31 -3 32 -1 35 37 5 57 -17 124 -46 143 -13 9 -43 18 -65 22
l-40 5 -1 48 -1 47 48 0 c38 0 53 5 72 25 35 35 37 85 3 121 -19 21 -19 24 -3
54 29 57 21 123 -35 273 -55 146 -151 289 -270 401 -69 64 -110 83 -110 49z
m-194 -1058 c13 -13 58 -15 276 -15 l260 0 29 -31 c16 -17 29 -40 29 -50 0
-23 -2 -23 -48 0 -20 10 -57 24 -81 31 -42 11 -47 10 -129 -31 l-85 -42 -82
43 c-79 40 -85 42 -121 30 -22 -7 -51 -21 -65 -31 -62 -43 -76 -43 -162 1 -90
47 -109 47 -190 -3 -27 -17 -62 -30 -77 -30 -15 0 -50 13 -77 30 -80 49 -97
49 -191 3 l-83 -41 -84 41 c-79 40 -85 41 -121 30 -20 -7 -52 -23 -71 -36 -58
-39 -68 -38 -157 6 -80 40 -85 41 -127 30 -24 -7 -61 -21 -81 -31 -45 -23 -48
-23 -48 -4 0 27 22 63 47 74 17 8 216 11 664 11 559 0 640 2 645 15 5 11 21
15 61 15 35 0 60 -5 69 -15z m-1309 -121 c-3 -3 -12 -4 -19 -1 -8 3 -5 6 6 6
11 1 17 -2 13 -5z m683 2 c0 -2 -7 -7 -16 -10 -8 -3 -12 -2 -9 4 6 10 25 14
25 6z m367 -2 c-3 -3 -12 -4 -19 -1 -8 3 -5 6 6 6 11 1 17 -2 13 -5z m700 0
c-3 -3 -12 -4 -19 -1 -8 3 -5 6 6 6 11 1 17 -2 13 -5z m-1687 -30 c0 -2 -9 0
-20 6 -11 6 -20 13 -20 16 0 2 9 0 20 -6 11 -6 20 -13 20 -16z m1640 21 c0 -2
-10 -9 -22 -15 -22 -11 -22 -10 -4 4 21 17 26 19 26 11z m-1085 -25 c-3 -5
-12 -10 -18 -10 -7 0 -6 4 3 10 19 12 23 12 15 0z m-712 -105 c23 -32 17 -32
-13 0 -13 14 -19 25 -14 25 5 0 17 -12 27 -25z m1947 21 c0 -3 -4 -8 -10 -11
-5 -3 -10 -1 -10 4 0 6 5 11 10 11 6 0 10 -2 10 -4z"/>
<path d="M2498 1353 c7 -3 16 -2 19 1 4 3 -2 6 -13 5 -11 0 -14 -3 -6 -6z"/>
<path d="M1258 2410 c-24 -28 -23 -60 1 -60 21 0 64 47 58 64 -6 20 -42 17
-59 -4z"/>
<path d="M2277 2362 c-22 -24 -22 -51 0 -59 19 -7 53 29 53 58 0 25 -32 25
-53 1z"/>
<path d="M1681 2286 c-26 -28 -24 -61 3 -61 10 0 28 12 39 27 17 22 18 30 7
43 -17 20 -23 19 -49 -9z"/>
<path d="M1326 2175 c-21 -32 -20 -55 2 -55 26 0 64 43 56 63 -9 25 -39 21
-58 -8z"/>
<path d="M2090 2173 c-24 -31 -22 -47 7 -51 23 -3 53 31 53 60 0 27 -35 22
-60 -9z"/>
<path d="M2535 2144 c-18 -28 -14 -54 8 -54 21 0 60 47 54 64 -10 24 -43 19
-62 -10z"/>
<path d="M1011 2034 c-22 -28 -18 -54 10 -54 20 0 49 36 49 62 0 27 -35 22
-59 -8z"/>
<path d="M1326 1958 c-22 -31 -20 -58 3 -58 24 0 62 46 54 66 -8 21 -40 17
-57 -8z"/>
<path d="M1981 1944 c-25 -32 -27 -52 -5 -61 18 -7 64 34 64 58 0 14 -18 29
-35 29 -2 0 -13 -12 -24 -26z"/>
<path d="M2427 1944 c-21 -29 -16 -54 10 -54 22 1 57 46 49 66 -8 22 -39 16
-59 -12z"/>
<path d="M1621 1926 c-26 -28 -24 -61 3 -61 10 0 28 12 39 27 17 22 18 30 7
43 -17 20 -23 19 -49 -9z"/>
<path d="M837 859 c7 -7 15 -10 18 -7 3 3 -2 9 -12 12 -14 6 -15 5 -6 -5z"/>
<path d="M2685 850 l-50 -7 45 -1 c25 0 54 3 65 8 23 10 12 10 -60 0z"/>
<path d="M898 843 c12 -2 32 -2 45 0 12 2 2 4 -23 4 -25 0 -35 -2 -22 -4z"/>
<path d="M2258 843 c12 -2 32 -2 45 0 12 2 2 4 -23 4 -25 0 -35 -2 -22 -4z"/>
<path d="M2348 843 c7 -3 16 -2 19 1 4 3 -2 6 -13 5 -11 0 -14 -3 -6 -6z"/>
<path d="M2408 843 c7 -3 16 -2 19 1 4 3 -2 6 -13 5 -11 0 -14 -3 -6 -6z"/>
<path d="M2365 790 c-3 -5 -1 -10 4 -10 6 0 11 5 11 10 0 6 -2 10 -4 10 -3 0
-8 -4 -11 -10z"/>
</g>
</svg>
